<?xml version="1.0" standalone="no"?><!DOCTYPE svg PUBLIC "-//W3C//DTD SVG 1.1//EN" "http://www.w3.org/Graphics/SVG/1.1/DTD/svg11.dtd"><svg t="1513239889449" class="icon" style="" viewBox="0 0 1024 1024" version="1.1" xmlns="http://www.w3.org/2000/svg" p-id="3052" xmlns:xlink="http://www.w3.org/1999/xlink" width="32" height="32" fill="#333"><defs><style type="text/css"></style></defs><path d="M801.989809 168.933424 222.012624 168.933424c-40.781689 0-72.498212 31.71774-72.498212 72.498212l0 432.714773c0 40.781689 31.71774 72.499429 72.498212 72.499429l36.246065 0 0 90.620029c0 13.592275 4.531974 20.38902 13.592275 20.38902 4.531974 0 9.063949-2.263555 13.59714-6.796745l131.398069-104.212303 385.143636 0c40.776824 0 72.49578-31.71774 72.49578-72.499429l0-432.714773C874.484372 200.651163 842.766632 168.933424 801.989809 168.933424zM835.483362 672.684403c0 20.221169-15.724468 35.94442-35.940771 35.94442L417.647721 708.628823l-13.477941 0-8.984889 6.738362-98.843507 78.627203 0-49.421145 0-35.94442L260.399397 708.628823 224.458625 708.628823c-20.219953 0-35.943204-15.723251-35.943204-35.94442L188.515421 243.620996c0-20.219953 15.723251-35.943204 35.943204-35.943204l575.083966 0c20.216304 0 35.940771 15.723251 35.940771 35.943204L835.483362 672.684403z" p-id="3053"></path><path d="M838.234658 674.146409" p-id="3054"></path><path d="M330.756902 458.922624c0 9.488441 3.906791 18.923365 10.617178 25.632536s16.140446 10.617178 25.633753 10.617178c9.488441 0 18.919716-3.906791 25.630104-10.617178s10.615962-16.144095 10.615962-25.632536c0-9.489658-3.905574-18.920933-10.615962-25.630104-6.710387-6.714036-16.141662-10.619611-25.630104-10.619611-9.493307 0-18.923365 3.905574-25.633753 10.619611C334.663692 440.001691 330.756902 449.432966 330.756902 458.922624L330.756902 458.922624zM330.756902 458.922624" p-id="3055"></path><path d="M475.75211 458.922624c0 9.488441 3.905574 18.923365 10.615962 25.632536s16.140446 10.617178 25.633753 10.617178c9.488441 0 18.919716-3.906791 25.628887-10.617178s10.617178-16.144095 10.617178-25.632536c0-9.489658-3.906791-18.920933-10.617178-25.630104-6.710387-6.714036-16.141662-10.619611-25.628887-10.619611-9.493307 0-18.923365 3.905574-25.633753 10.619611C479.657684 440.001691 475.75211 449.432966 475.75211 458.922624L475.75211 458.922624zM475.75211 458.922624" p-id="3056"></path><path d="M620.746102 458.922624c0 9.488441 3.905574 18.923365 10.615962 25.632536s16.141662 10.617178 25.633753 10.617178c9.489658 0 18.919716-3.906791 25.628887-10.617178s10.617178-16.144095 10.617178-25.632536c0-9.489658-3.906791-18.920933-10.617178-25.630104-6.710387-6.714036-16.140446-10.619611-25.628887-10.619611-9.493307 0-18.924582 3.905574-25.633753 10.619611C624.651677 440.001691 620.746102 449.432966 620.746102 458.922624L620.746102 458.922624zM620.746102 458.922624" p-id="3057"></path></svg>